# xmcd
#
# Track frame offsets:
#	183
#	12525
#	17365
#	32253
#	43218
#	55513
#	62180
#	68943
#	80878
#	92228
#	102153
#	111928
#	116140
#	126958
#	136920
#	153348
#	162878
#	169578
#	175415
#	190990
#	215390
#	229208
#	236803
#	248423
#	265765
#	277770
#	300553
#
# Disc length: 4372 seconds
# Revision: 0
# Processed by: cddbd v1.5.2PL0 Copyright (c) Steve Scherf et al.
# Submitted via: dBpowerAMP V12.0
#
DISCID=7011121b
DTITLE=Led Zepplelin - A Tribute to Johnny Kid and the Pirates
DYEAR=1900
DGENRE=
TTITLE0=Schooldays
TTITLE1=Nadine
TTITLE2=Round and Round
TTITLE3=Go, Go, Go
TTITLE4=Love Me Like a Hurricane
TTITLE5=Move It
TTITLE6=Dynamite
TTITLE7=Shakin' All Over
TTITLE8=Hungry For Love
TTITLE9=I'll Never Get Over You
TTITLE10=Reelin' and Rockin'
TTITLE11=Snowdonia
TTITLE12=Tales from the Riverside
TTITLE13=Daze That Used To Be
TTITLE14=Bert Jansch
TTITLE15=In the Beechwoods
TTITLE16=Friends
TTITLE17=Wind In The Willows
TTITLE18=Golden Breast
TTITLE19=Who Remembers Davey Graham?
TTITLE20=Strawberry Jam #1
TTITLE21=Strawberry Jam #2
TTITLE22=Wanton Song
TTITLE23=The Rover #1
TTITLE24=The Rover #2
TTITLE25=Night Flight #1
TTITLE26=Night Flight #2
EXTD=
EXTT0=
EXTT1=
EXTT2=
EXTT3=
EXTT4=
EXTT5=
EXTT6=
EXTT7=
EXTT8=
EXTT9=
EXTT10=
EXTT11=
EXTT12=
EXTT13=
EXTT14=
EXTT15=
EXTT16=
EXTT17=
EXTT18=
EXTT19=
EXTT20=
EXTT21=
EXTT22=
EXTT23=
EXTT24=
EXTT25=
EXTT26=
PLAYORDER=
